HIERARCHY
ROOT Hips
{
    OFFSET   0.000000   0.000000   0.000000
    CHANNELS 6 Xposition Yposition Zposition Zrotation Xrotation Yrotation
    JOINT Chest
    {
        OFFSET   0.000000   8.007230   0.000000
        CHANNELS 3 Zrotation Xrotation Yrotation
        JOINT Chest2
        {
            OFFSET   0.000000  22.077100   0.000000
            CHANNELS 3 Zrotation Xrotation Yrotation
            JOINT Neck
            {
                OFFSET   0.000000  23.254800   0.000000
                CHANNELS 3 Zrotation Xrotation Yrotation
                JOINT Head
                {
                    OFFSET   0.000010  14.370000   1.956600
                    CHANNELS 3 Zrotation Xrotation Yrotation
                    End Site
                    {
                        OFFSET   0.000000  19.566000   0.000000
                    }
                }
            }
            JOINT LeftCollar
            {
                OFFSET   3.911900  19.017000  -0.467062
                CHANNELS 3 Zrotation Xrotation Yrotation
                JOINT LeftShoulder
                {
                    OFFSET  10.383700   0.000000   0.000000
                    CHANNELS 3 Zrotation Xrotation Yrotation
                    JOINT LeftElbow
                    {
                        OFFSET  26.662100   0.001193   0.000835
                        CHANNELS 3 Zrotation Xrotation Yrotation
                        JOINT LeftWrist
                        {
                            OFFSET  28.869000  -0.000058  -0.000075
                            CHANNELS 3 Zrotation Xrotation Yrotation
                            JOINT LeftFinger0
                            {
                                OFFSET   2.044660  -2.323460   3.252850
                                CHANNELS 3 Zrotation Xrotation Yrotation
                                JOINT LeftFinger01
                                {
                                    OFFSET   3.088130   0.000000   0.000000
                                    CHANNELS 3 Zrotation Xrotation Yrotation
                                    JOINT LeftFinger02
                                    {
                                        OFFSET   2.639450   0.000000   0.000000
                                        CHANNELS 3 Zrotation Xrotation Yrotation
                                        End Site
                                        {
                                            OFFSET   2.582190   0.000000   0.000000
                                        }
                                    }
                                }
                            }
                            JOINT LeftFinger1
                            {
                                OFFSET   8.364480   0.000000   3.252850
                                CHANNELS 3 Zrotation Xrotation Yrotation
                                JOINT LeftFinger11
                                {
                                    OFFSET   4.646920   0.000000   0.000000
                                    CHANNELS 3 Zrotation Xrotation Yrotation
                                    JOINT LeftFinger12
                                    {
                                        OFFSET   2.323460   0.000000   0.000000
                                        CHANNELS 3 Zrotation Xrotation Yrotation
                                        End Site
                                        {
                                            OFFSET   2.273050   0.000000   0.000000
                                        }
                                    }
                                }
                            }
                            JOINT LeftFinger2
                            {
                                OFFSET   8.364490   0.000016   1.078090
                                CHANNELS 3 Zrotation Xrotation Yrotation
                                JOINT LeftFinger21
                                {
                                    OFFSET   5.111620   0.000000   0.000000
                                    CHANNELS 3 Zrotation Xrotation Yrotation
                                    JOINT LeftFinger22
                                    {
                                        OFFSET   2.788150   0.000012   0.000000
                                        CHANNELS 3 Zrotation Xrotation Yrotation
                                        End Site
                                        {
                                            OFFSET   2.727660   0.000000   0.000000
                                        }
                                    }
                                }
                            }
                            JOINT LeftFinger3
                            {
                                OFFSET   7.899780   0.000014  -1.078090
                                CHANNELS 3 Zrotation Xrotation Yrotation
                                JOINT LeftFinger31
                                {
                                    OFFSET   4.646930   0.000000   0.000000
                                    CHANNELS 3 Zrotation Xrotation Yrotation
                                    JOINT LeftFinger32
                                    {
                                        OFFSET   2.323470   0.000000   0.000000
                                        CHANNELS 3 Zrotation Xrotation Yrotation
                                        End Site
                                        {
                                            OFFSET   2.273050   0.000000   0.000000
                                        }
                                    }
                                }
                            }
                            JOINT LeftFinger4
                            {
                                OFFSET   7.435090   0.000000  -3.252850
                                CHANNELS 3 Zrotation Xrotation Yrotation
                                JOINT LeftFinger41
                                {
                                    OFFSET   3.717550   0.000000   0.000000
                                    CHANNELS 3 Zrotation Xrotation Yrotation
                                    JOINT LeftFinger42
                                    {
                                        OFFSET   1.858770   0.000000   0.000000
                                        CHANNELS 3 Zrotation Xrotation Yrotation
                                        End Site
                                        {
                                            OFFSET   1.818440   0.000000   0.000000
                                        }
                                    }
                                }
                            }
                        }
                    }
                }
            }
            JOINT RightCollar
            {
                OFFSET  -3.911900  19.017000  -0.467063
                CHANNELS 3 Zrotation Xrotation Yrotation
                JOINT RightShoulder
                {
                    OFFSET -10.383700   0.000023   0.000000
                    CHANNELS 3 Zrotation Xrotation Yrotation
                    JOINT RightElbow
                    {
                        OFFSET -26.662100   0.001246   0.001011
                        CHANNELS 3 Zrotation Xrotation Yrotation
                        JOINT RightWrist
                        {
                            OFFSET -28.869000  -0.000026  -0.000078
                            CHANNELS 3 Zrotation Xrotation Yrotation
                            JOINT RightFinger0
                            {
                                OFFSET  -2.044660  -2.323490   3.252850
                                CHANNELS 3 Zrotation Xrotation Yrotation
                                JOINT RightFinger01
                                {
                                    OFFSET  -3.088130   0.000000   0.000000
                                    CHANNELS 3 Zrotation Xrotation Yrotation
                                    JOINT RightFinger02
                                    {
                                        OFFSET  -2.639460   0.000000   0.000000
                                        CHANNELS 3 Zrotation Xrotation Yrotation
                                        End Site
                                        {
                                            OFFSET  -2.582190   0.000000   0.000000
                                        }
                                    }
                                }
                            }
                            JOINT RightFinger1
                            {
                                OFFSET  -8.364480   0.000000   3.252850
                                CHANNELS 3 Zrotation Xrotation Yrotation
                                JOINT RightFinger11
                                {
                                    OFFSET  -4.646920   0.000000   0.000000
                                    CHANNELS 3 Zrotation Xrotation Yrotation
                                    JOINT RightFinger12
                                    {
                                        OFFSET  -2.323470   0.000000   0.000000
                                        CHANNELS 3 Zrotation Xrotation Yrotation
                                        End Site
                                        {
                                            OFFSET  -2.273050   0.000000   0.000000
                                        }
                                    }
                                }
                            }
                            JOINT RightFinger2
                            {
                                OFFSET  -8.364480   0.000000   1.078090
                                CHANNELS 3 Zrotation Xrotation Yrotation
                                JOINT RightFinger21
                                {
                                    OFFSET  -5.111620   0.000000   0.000000
                                    CHANNELS 3 Zrotation Xrotation Yrotation
                                    JOINT RightFinger22
                                    {
                                        OFFSET  -2.788160   0.000000   0.000000
                                        CHANNELS 3 Zrotation Xrotation Yrotation
                                        End Site
                                        {
                                            OFFSET  -2.727660   0.000000   0.000000
                                        }
                                    }
                                }
                            }
                            JOINT RightFinger3
                            {
                                OFFSET  -7.899780   0.000000  -1.078090
                                CHANNELS 3 Zrotation Xrotation Yrotation
                                JOINT RightFinger31
                                {
                                    OFFSET  -4.646930   0.000000   0.000000
                                    CHANNELS 3 Zrotation Xrotation Yrotation
                                    JOINT RightFinger32
                                    {
                                        OFFSET  -2.323470   0.000000   0.000000
                                        CHANNELS 3 Zrotation Xrotation Yrotation
                                        End Site
                                        {
                                            OFFSET  -2.273050   0.000000   0.000000
                                        }
                                    }
                                }
                            }
                            JOINT RightFinger4
                            {
                                OFFSET  -7.435090   0.000000  -3.252850
                                CHANNELS 3 Zrotation Xrotation Yrotation
                                JOINT RightFinger41
                                {
                                    OFFSET  -3.717550   0.000000   0.000000
                                    CHANNELS 3 Zrotation Xrotation Yrotation
                                    JOINT RightFinger42
                                    {
                                        OFFSET  -1.858760   0.000000   0.000000
                                        CHANNELS 3 Zrotation Xrotation Yrotation
                                        End Site
                                        {
                                            OFFSET  -1.818440   0.000000   0.000000
                                        }
                                    }
                                }
                            }
                        }
                    }
                }
            }
        }
    }
    JOINT LeftHip
    {
        OFFSET   9.783010   0.000000   0.000000
        CHANNELS 3 Zrotation Xrotation Yrotation
        JOINT LeftKnee
        {
            OFFSET   0.000073 -41.789100   0.001749
            CHANNELS 3 Zrotation Xrotation Yrotation
            JOINT LeftAnkle
            {
                OFFSET   0.000111 -41.133200  -0.000179
                CHANNELS 3 Zrotation Xrotation Yrotation
                JOINT LeftToe
                {
                    OFFSET   0.000000  -6.358960  14.674500
                    CHANNELS 3 Zrotation Xrotation Yrotation
                    End Site
                    {
                        OFFSET   0.000000   0.000000   3.913200
                    }
                }
            }
        }
    }
    JOINT RightHip
    {
        OFFSET  -9.783010   0.000000   0.000000
        CHANNELS 3 Zrotation Xrotation Yrotation
        JOINT RightKnee
        {
            OFFSET   0.000424 -41.789200   0.005205
            CHANNELS 3 Zrotation Xrotation Yrotation
            JOINT RightAnkle
            {
                OFFSET   0.000000 -41.133200  -0.000155
                CHANNELS 3 Zrotation Xrotation Yrotation
                JOINT RightToe
                {
                    OFFSET   0.000000  -6.358960  14.674500
                    CHANNELS 3 Zrotation Xrotation Yrotation
                    End Site
                    {
                        OFFSET   0.000000   0.000000   3.913200
                    }
                }
            }
        }
    }
}
MOTION
Frames: 5
Frame Time:   0.016667
  0.554561  90.036000   0.610567  -0.679534  -2.164250   0.124093  -0.172296   2.632350  -0.206044  -0.335629   5.265310  -0.404796   1.892410  -0.189889  -0.003026   3.103890  -0.384541   7.073070  -7.727130  -1.619030   6.576420 -71.191100  15.976700  -0.016441  -4.335440  -9.394810 -13.568300  15.980600  -1.508130   7.599960  49.168900  43.579300 -87.635500 -20.209400   0.000967   0.000388  -5.111790   0.004489  -0.001026 -32.110100   7.166110 -11.243100 -26.849800  -0.004710  -0.000404 -18.794900   0.002011  -0.001930 -28.732100   1.434970  -2.615530 -40.704400  -0.002961  -0.003788 -27.109200   0.001732  -0.003871 -27.767900  -0.257067   0.488211 -30.605400   0.002930   0.005235 -20.383200  -0.001154   0.003947 -30.738700  -1.253640   2.106960 -46.142700  -0.002286  -0.004533 -30.731000  -0.002991  -0.003462  10.521400   2.236310   8.809110  69.762900   8.647120  -1.775630   1.511000  -7.180050  14.028000 -13.552600 -19.957000   5.478250 -38.205600  33.042900  75.904800  25.606100   0.004816  -0.011103   7.803040   0.004460  -0.005775  23.739500   0.547782   1.254490  19.428100  -0.007220   0.006080  13.599600  -0.006678   0.007904  23.953500  -0.549816  -1.226440  23.959400  -0.014557   0.000489  15.967200  -0.006378   0.000773  23.543800  -3.322680  -7.580650  23.777500  -0.000789   0.001311  15.829000  -0.009929   0.001598  30.304700  -4.196640  -7.137360  45.850600  -0.007750  -0.000153  30.536500   0.001459   0.000371   0.164559   3.840420   1.789690   0.353829   0.499800  10.157000  -4.836730  -4.388990   4.799130  -0.000000   0.000000   0.000000   1.449060   4.211480  -8.459460   0.231613   1.364490  -7.847690  -9.646590  -0.133725   1.398980  -0.000000   0.000000  -0.000000
  0.544092  90.036000   0.599393  -0.679303  -2.176220   0.129487  -0.178148   2.643370  -0.203824  -0.347420   5.287350  -0.400048   1.885040  -0.165224  -0.002986   3.094030  -0.334375   7.143970  -7.726870  -1.624330   6.575900 -71.187400  15.975100  -0.006132  -4.339050  -9.413580 -13.562700  15.964200  -1.549790   7.612220  49.145700  43.564300 -87.612000 -20.214300   0.000969   0.000416  -5.111790   0.004489  -0.001041 -32.113300   7.151610 -11.219500 -26.848400  -0.004710  -0.000405 -18.793900   0.002012  -0.001930 -28.733200   1.422860  -2.593370 -40.717800  -0.002961  -0.003787 -27.118200   0.001731  -0.003871 -27.767600  -0.263107   0.499578 -30.631100   0.002930   0.005236 -20.400300  -0.001155   0.003948 -30.749600  -1.265260   2.125380 -46.159500  -0.002287  -0.004532 -30.742200  -0.002994  -0.003462  10.521200   2.236300   8.809180  69.761800   8.658930  -1.763650   1.511690  -7.188390  14.020200 -13.551100 -19.967500   5.467410 -38.192000  33.043500  75.912100  25.620400   0.004825  -0.011097   7.810190   0.004455  -0.005777  23.756500   0.550199   1.255230  19.442100  -0.007219   0.006080  13.609400  -0.006677   0.007903  23.963200  -0.547754  -1.225780  23.969200  -0.014559   0.000490  15.967200  -0.006373   0.000772  23.550600  -3.322700  -7.578340  23.777500  -0.000790   0.001308  15.829000  -0.009928   0.001599  30.305000  -4.195700  -7.135170  45.850600  -0.007752  -0.000155  30.536500   0.001459   0.000371   0.164065   3.840480   1.789770   0.359692   0.508382  10.159300  -4.843100  -4.389030   4.790450   0.000000   0.000000  -0.000000   1.449110   4.218720  -8.459450   0.231957   1.363490  -7.847740  -9.654150  -0.130369   1.398900  -0.000000   0.000000  -0.000000
  0.526640  90.036000   0.580868  -0.678971  -2.196200   0.136977  -0.188283   2.661670  -0.199229  -0.367881   5.323950  -0.390323   1.873060  -0.122688  -0.002920   3.077060  -0.248039   7.270790  -7.728510  -1.631760   6.572600 -71.179600  15.968500   0.012156  -4.345210  -9.446660 -13.552300  15.939200  -1.625670   7.637280  49.123300  43.549200 -87.588600 -20.223600   0.000973   0.000444  -5.111790   0.004484  -0.001063 -32.104600   7.123230 -11.180100 -26.838700  -0.004711  -0.000405 -18.787100   0.002012  -0.001931 -28.734800   1.403860  -2.558670 -40.731300  -0.002959  -0.003783 -27.127200   0.001727  -0.003871 -27.767200  -0.272056   0.516466 -30.656700   0.002932   0.005239 -20.417300  -0.001158   0.003950 -30.760000  -1.282800   2.154110 -46.176300  -0.002291  -0.004528 -30.753400  -0.003004  -0.003462  10.521000   2.236280   8.809310  69.759900   8.685260  -1.744060   1.513780  -7.205400  14.006800 -13.541800 -19.977900   5.456560 -38.177600  33.046500  75.925400  25.634700   0.004833  -0.011090   7.817340   0.004446  -0.005778  23.773400   0.555329   1.260450  19.456000  -0.007218   0.006080  13.619200  -0.006676   0.007902  23.973100  -0.543095  -1.221160  23.978900  -0.014563   0.000491  15.967100  -0.006369   0.000770  23.557600  -3.322750  -7.572190  23.777500  -0.000790   0.001305  15.828900  -0.009927   0.001600  30.305800  -4.192440  -7.129430  45.850600  -0.007755  -0.000159  30.536500   0.001460   0.000372   0.163566   3.840540   1.789920   0.368920   0.524683  10.165700  -4.853900  -4.388990   4.776440  -0.000000   0.000000  -0.000000   1.449410   4.227610  -8.459410   0.232302   1.362500  -7.847790  -9.666880  -0.124810   1.398820   0.000000   0.000000   0.000000
  0.512752  90.036000   0.566270  -0.675588  -2.212020   0.139967  -0.197467   2.676030  -0.193523  -0.386507   5.352690  -0.378419   1.864560  -0.086237  -0.002859   3.063010  -0.174464   7.389440  -7.735770  -1.634360   6.563410 -71.169000  15.950500   0.030074  -4.349730  -9.473340 -13.543300  15.918500  -1.703090   7.667920  49.153200  43.562400 -87.608300 -20.233700   0.000977   0.000441  -5.115710   0.004470  -0.001077 -32.056500   7.086440 -11.144400 -26.796200  -0.004711  -0.000403 -18.757300   0.002018  -0.001931 -28.736000   1.390520  -2.534430 -40.696100  -0.002957  -0.003776 -27.103700   0.001720  -0.003870 -27.767100  -0.276827   0.525613 -30.635500   0.002935   0.005244 -20.403200  -0.001162   0.003954 -30.736900  -1.293490   2.174230 -46.142400  -0.002299  -0.004521 -30.730800  -0.003020  -0.003461  10.521000   2.236470   8.809420  69.757100   8.723010  -1.728330   1.519330  -7.228040  13.992900 -13.518800 -19.967200   5.458860 -38.182500  33.058700  75.938200  25.617700   0.004828  -0.011086   7.808860   0.004439  -0.005770  23.769100   0.562665   1.276450  19.451100  -0.007216   0.006078  13.615300  -0.006673   0.007901  23.969900  -0.536157  -1.206680  23.975600  -0.014565   0.000487  15.966900  -0.006370   0.000768  23.555800  -3.318580  -7.561540  23.774900  -0.000786   0.001305  15.828800  -0.009929   0.001597  30.301000  -4.185720  -7.119690  45.842300  -0.007756  -0.000159  30.530900   0.001457   0.000372   0.164897   3.839330   1.790100   0.375154   0.543983  10.177300  -4.863160  -4.387530   4.766060  -0.000000   0.000000  -0.000000   1.451140   4.229540  -8.459320   0.232758   1.366420  -7.847780  -9.677360  -0.119357   1.398940  -0.000000   0.000000  -0.000000
  0.498703  90.035900   0.551759  -0.670702  -2.228410   0.140862  -0.206558   2.690610  -0.187050  -0.404983   5.381870  -0.364980   1.855530  -0.046915  -0.002823   3.047590  -0.095116   7.520340  -7.745980  -1.636160   6.554180 -71.158400  15.937400   0.047379  -4.354110  -9.509270 -13.529600  15.911800  -1.781950   7.702310  49.183200  43.575600 -87.628000 -20.245200   0.000980   0.000430  -5.122630   0.004449  -0.001088 -32.010300   7.055100 -11.115900 -26.752700  -0.004710  -0.000400 -18.726900   0.002027  -0.001931 -28.736900   1.379890  -2.515160 -40.649700  -0.002955  -0.003768 -27.072700   0.001712  -0.003869 -27.767000  -0.280342   0.532392 -30.614300   0.002939   0.005251 -20.389100  -0.001167   0.003959 -30.705900  -1.301000   2.189360 -46.096200  -0.002309  -0.004513 -30.700100  -0.003041  -0.003458  10.521300   2.236720   8.809530  69.752600   8.763190  -1.714800   1.527900  -7.249470  13.983000 -13.495100 -19.956400   5.462740 -38.195400  33.072800  75.947700  25.593900   0.004823  -0.011085   7.796950   0.004435  -0.005762  23.762700   0.569491   1.293250  19.444300  -0.007215   0.006075  13.610400  -0.006669   0.007899  23.964800  -0.529041  -1.190020  23.970300  -0.014567   0.000481  15.966800  -0.006372   0.000766  23.551600  -3.311870  -7.549840  23.770200  -0.000781   0.001306  15.828700  -0.009933   0.001592  30.292700  -4.178110  -7.109010  45.828500  -0.007759  -0.000160  30.521800   0.001452   0.000372   0.168295   3.838120   1.790220   0.380738   0.561552  10.189700  -4.872590  -4.383380   4.756520   0.000000   0.000000  -0.000000   1.455140   4.229810  -8.459200   0.233568   1.376150  -7.847790  -9.687940  -0.116105   1.399050  -0.000000   0.000000   0.000000
